<svg id="Capa_1" enable-background="new 0 0 512.002 512.002" height="512" viewBox="0 0 512.002 512.002" width="512" xmlns="http://www.w3.org/2000/svg"><g><path d="m214.88 137.461c19.117-37.682 58.231-63.505 103.376-63.505 63.98 0 115.846 51.866 115.846 115.847 0 40.57-20.854 76.268-52.427 96.961h-166.795z" fill="#ffce69"/><path d="m214.88 137.461c19.117-37.682 58.231-63.505 103.376-63.505 63.98 0 115.846 51.866 115.846 115.847 0 40.57-20.854 76.268-52.427 96.961h-166.795z" fill="#ffce69"/><path d="m318.256 73.955c-4.002 0-7.954.213-11.851.609 58.371 5.976 103.908 55.289 103.908 115.238 0 40.569-20.854 76.268-52.427 96.961h23.79c31.573-20.693 52.427-56.392 52.427-96.961-.001-63.98-51.867-115.847-115.847-115.847z" fill="#ffbd61"/><path d="m86.563 206.352c0-46.641 38.588-84.269 85.581-82.7 44.751 1.494 79.914 38.963 79.914 83.739 0 17.706 14.354 32.06 32.06 32.06h33.151c36.382 0 66.707 28.94 67.179 65.319.48 36.963-29.339 67.077-66.192 67.077h-230.654c-45.627 0-83.446-36.495-83.784-82.12-.341-45.989 36.836-83.375 82.745-83.375z" fill="#f9f5f3"/><g fill="#f9eae0"><path d="m228.268 207.39c0 17.706 14.354 32.06 32.06 32.06h23.79c-17.706 0-32.06-14.354-32.06-32.06 0-44.776-35.163-82.245-79.914-83.739-5.013-.168-9.923.137-14.708.825 40.333 5.873 70.832 41.217 70.832 82.914z"/><path d="m317.269 239.451h-23.79c36.382 0 66.707 28.94 67.179 65.319.479 36.963-29.34 67.077-66.192 67.077h23.79c36.853 0 66.672-30.114 66.192-67.077-.472-36.379-30.797-65.319-67.179-65.319z"/></g><g><path d="m318.453 48.134c-4.143 0-7.5-3.357-7.5-7.5v-33.134c0-4.143 3.357-7.5 7.5-7.5s7.5 3.357 7.5 7.5v33.134c0 4.142-3.357 7.5-7.5 7.5z" fill="#ffbd61"/></g><g><path d="m213.024 91.804c-1.919 0-3.839-.732-5.304-2.196l-23.429-23.429c-2.929-2.93-2.929-7.678 0-10.607 2.93-2.928 7.678-2.928 10.607 0l23.429 23.428c2.929 2.93 2.929 7.678 0 10.607-1.465 1.464-3.384 2.197-5.303 2.197z" fill="#ffbd61"/></g><g><path d="m447.312 326.092c-1.919 0-3.839-.732-5.304-2.196l-23.429-23.429c-2.929-2.93-2.929-7.678 0-10.607 2.93-2.928 7.678-2.928 10.607 0l23.429 23.429c2.929 2.93 2.929 7.678 0 10.607-1.464 1.463-3.385 2.196-5.303 2.196z" fill="#ffbd61"/></g><g><path d="m500.687 197.233h-33.134c-4.143 0-7.5-3.357-7.5-7.5s3.357-7.5 7.5-7.5h33.134c4.143 0 7.5 3.357 7.5 7.5s-3.358 7.5-7.5 7.5z" fill="#ffbd61"/></g><g><path d="m423.883 91.804c-1.919 0-3.839-.732-5.304-2.196-2.929-2.93-2.929-7.678 0-10.607l23.429-23.429c2.93-2.928 7.678-2.928 10.607 0 2.929 2.93 2.929 7.678 0 10.607l-23.429 23.429c-1.464 1.463-3.384 2.196-5.303 2.196z" fill="#ffbd61"/></g><g><path d="m136.214 445.735c-1.127 0-2.271-.255-3.349-.794-3.704-1.853-5.206-6.357-3.354-10.063l16.566-33.134c1.852-3.704 6.355-5.209 10.063-3.353 3.704 1.853 5.206 6.357 3.354 10.063l-16.566 33.134c-1.314 2.628-3.963 4.147-6.714 4.147z" fill="#a0c8ff"/></g><g><path d="m219.047 445.735c-1.127 0-2.271-.256-3.349-.794-3.704-1.853-5.206-6.357-3.354-10.063l16.567-33.134c1.852-3.704 6.356-5.205 10.063-3.353 3.704 1.853 5.206 6.357 3.354 10.063l-16.567 33.134c-1.314 2.628-3.963 4.147-6.714 4.147z" fill="#a0c8ff"/></g><g><g><path d="m252.181 512.002c-1.127 0-2.271-.255-3.349-.794-3.704-1.853-5.206-6.357-3.354-10.063l16.566-33.134c1.852-3.705 6.355-5.208 10.063-3.353 3.704 1.853 5.206 6.357 3.353 10.063l-16.566 33.134c-1.313 2.627-3.962 4.147-6.713 4.147z" fill="#a0c8ff"/></g></g><g><g><path d="m169.348 512.002c-1.127 0-2.271-.255-3.349-.794-3.704-1.853-5.206-6.357-3.354-10.063l16.566-33.134c1.852-3.705 6.355-5.208 10.063-3.353 3.704 1.853 5.206 6.357 3.354 10.063l-16.566 33.134c-1.314 2.627-3.963 4.147-6.714 4.147z" fill="#a0c8ff"/></g></g><g><path d="m301.881 445.735c-1.127 0-2.271-.255-3.349-.794-3.704-1.853-5.206-6.357-3.354-10.063l16.566-33.134c1.852-3.704 6.355-5.209 10.063-3.353 3.704 1.853 5.206 6.357 3.354 10.063l-16.566 33.134c-1.314 2.628-3.963 4.147-6.714 4.147z" fill="#a0c8ff"/></g></g></svg>