<svg id="Capa_1" enable-background="new 0 0 512 512" height="512" viewBox="0 0 512 512" width="512" xmlns="http://www.w3.org/2000/svg"><g><g><path d="m440.942 134.504h-.023c-1.239 0-2.305-.833-2.652-2.023-8.145-27.974-33.974-48.416-64.577-48.416-11.443 0-22.212 2.867-31.642 7.911-3.696 1.977-8.284.944-10.634-2.527-9.067-13.393-24.397-22.197-41.788-22.197-4.067 0-8.021.484-11.808 1.394-4.104.987-8.34-1.218-9.665-5.225-12.181-36.838-46.89-63.421-87.811-63.421-51.071 0-92.472 41.401-92.472 92.471 0 1.16.03 2.312.078 3.459.048 1.136-.325 2.25-1.024 3.146l-.072.093c-.876 1.123-2.202 1.785-3.624 1.862-44.745 2.438-80.184 39.842-79.41 85.373.782 46.028 39.073 82.603 85.108 82.603h351.014c36.961 0 67.769-29.401 68.249-66.359.487-37.551-29.807-68.144-67.247-68.144z" fill="#ecf4ff"/><path d="m440.942 134.504h-.023c-1.239 0-2.305-.833-2.652-2.023-8.145-27.974-33.974-48.416-64.577-48.416-11.443 0-22.212 2.867-31.642 7.911-3.696 1.977-8.284.944-10.634-2.527-9.067-13.393-24.397-22.197-41.788-22.197-4.067 0-8.021.484-11.808 1.394-4.104.987-8.34-1.218-9.665-5.225-12.181-36.838-46.89-63.421-87.811-63.421-51.071 0-92.472 41.401-92.472 92.471 0 1.16.03 2.312.078 3.459.048 1.136-.325 2.25-1.024 3.146l-.072.093c-.876 1.123-2.202 1.785-3.624 1.862-44.745 2.438-80.184 39.842-79.41 85.373.782 46.028 39.073 82.603 85.108 82.603h351.014c36.961 0 67.769-29.401 68.249-66.359.487-37.551-29.807-68.144-67.247-68.144z" fill="#ecf4ff"/><path d="m440.942 134.504h-.023c-1.239 0-2.305-.833-2.652-2.023-8.145-27.974-33.974-48.416-64.577-48.416-3.979 0-7.874.354-11.663 1.019 25.347 4.44 45.813 23.065 52.898 47.398.346 1.189 1.413 2.023 2.651 2.023h.023c37.439 0 67.733 30.593 67.246 68.145-.479 36.958-31.288 66.359-68.249 66.359h23.342c36.961 0 67.769-29.401 68.249-66.359.489-37.553-29.805-68.146-67.245-68.146z" fill="#daeaff"/><path d="m164.324 184.943c0 4.204 3.408 7.612 7.611 7.612 4.204 0 7.611-3.407 7.611-7.612 0-52.052-40.382-94.848-91.462-98.708-.137 2.062-.214 4.14-.214 6.236 0 1.16.03 2.312.078 3.459.048 1.136-.325 2.25-1.024 3.146l-.072.093c-.876 1.123-2.202 1.785-3.624 1.862-.675.037-1.34.107-2.011.159 45.885.36 83.107 37.785 83.107 83.753z" fill="#ddeafb"/><g><path d="m276.979 68.801c-3.828.521-7.592-1.645-8.827-5.38-.764-2.311-1.618-4.582-2.555-6.809-28.111 9.93-48.315 36.756-48.315 68.224 0 4.204 3.408 7.612 7.611 7.612 4.204 0 7.612-3.407 7.612-7.612 0-27.15 19.045-50.156 44.473-55.994v-.041z" fill="#ddeafb"/></g><path d="m381.302 205.561c0-4.204-3.408-7.611-7.612-7.611s-7.612 3.407-7.612 7.611c0 26.019 12.705 49.117 32.229 63.446h41.632c.815 0 1.623-.032 2.431-.06-33.884-1.256-61.068-29.199-61.068-63.386z" fill="#ddeafb"/></g><g><g fill="#bed8fb"><path d="m155.122 362.273h-17.789l6.919-8.649c2.626-3.283 2.094-8.072-1.189-10.699-3.282-2.626-8.072-2.094-10.698 1.188l-14.528 18.159h-22.355v-22.357l18.16-14.527c3.283-2.626 3.815-7.415 1.189-10.699-2.627-3.284-7.416-3.815-10.698-1.188l-8.65 6.92v-17.789c0-4.204-3.408-7.612-7.612-7.612s-7.611 3.407-7.611 7.612v17.789l-8.65-6.92c-3.282-2.626-8.073-2.094-10.698 1.188-2.626 3.283-2.094 8.072 1.189 10.699l18.16 14.527v22.357h-22.358l-14.529-18.159c-2.627-3.284-7.417-3.816-10.699-1.188-3.282 2.626-3.814 7.416-1.188 10.699l6.92 8.649h-17.789c-4.204 0-7.612 3.407-7.612 7.612 0 4.204 3.408 7.611 7.612 7.611h17.788l-6.919 8.648c-2.626 3.282-2.094 8.072 1.189 10.699 1.403 1.123 3.082 1.668 4.75 1.668 2.232 0 4.445-.977 5.948-2.856l14.527-18.159h22.357v22.356l-18.158 14.529c-3.283 2.626-3.815 7.416-1.189 10.699 1.503 1.879 3.716 2.856 5.949 2.856 1.667 0 3.346-.545 4.75-1.668l8.65-6.92v17.789c0 4.204 3.408 7.611 7.611 7.611 4.204 0 7.612-3.407 7.612-7.611v-17.789l8.649 6.919c3.283 2.626 8.073 2.094 10.698-1.188 2.626-3.283 2.094-8.072-1.189-10.699l-18.159-14.527v-22.357h22.356l14.528 18.16c1.503 1.879 3.716 2.856 5.949 2.856 1.667 0 3.346-.545 4.75-1.668 3.283-2.626 3.815-7.416 1.189-10.699l-6.919-8.649h17.789c4.204 0 7.611-3.407 7.611-7.611-.002-4.204-3.409-7.612-7.613-7.612z"/><path d="m491.382 362.273h-17.789l6.919-8.649c2.626-3.283 2.094-8.072-1.188-10.699-3.284-2.626-8.073-2.094-10.699 1.188l-14.528 18.159h-22.356v-22.357l18.16-14.527c3.283-2.626 3.815-7.415 1.189-10.699-2.627-3.284-7.416-3.815-10.698-1.188l-8.65 6.92v-17.789c0-4.204-3.408-7.612-7.611-7.612-4.204 0-7.612 3.407-7.612 7.612v17.789l-8.65-6.92c-3.283-2.626-8.073-2.094-10.698 1.188-2.626 3.282-2.094 8.072 1.189 10.699l18.159 14.527v22.357h-22.355l-14.529-18.159c-2.627-3.284-7.417-3.816-10.699-1.188-3.283 2.626-3.814 7.416-1.188 10.699l6.92 8.649h-17.789c-4.204 0-7.612 3.407-7.612 7.612 0 4.204 3.408 7.611 7.612 7.611h17.788l-6.919 8.648c-2.626 3.282-2.094 8.072 1.188 10.699 1.404 1.123 3.083 1.668 4.75 1.668 2.232 0 4.445-.977 5.948-2.856l14.527-18.159h22.357v22.357l-18.159 14.527c-3.283 2.626-3.815 7.416-1.189 10.699 2.626 3.282 7.416 3.815 10.698 1.188l8.65-6.92v17.789c0 4.204 3.408 7.611 7.612 7.611s7.611-3.407 7.611-7.611v-17.789l8.649 6.919c1.403 1.123 3.082 1.668 4.75 1.668 2.232 0 4.445-.977 5.948-2.856 2.626-3.283 2.094-8.072-1.189-10.699l-18.159-14.527v-22.357h22.356l14.528 18.16c1.503 1.879 3.715 2.856 5.948 2.856 1.667 0 3.346-.545 4.75-1.668 3.282-2.626 3.814-7.416 1.188-10.699l-6.919-8.649h17.789c4.204 0 7.612-3.407 7.612-7.611.001-4.203-3.407-7.611-7.61-7.611z"/><path d="m306.439 446.338h-9.383l2.716-3.396c2.626-3.283 2.094-8.072-1.189-10.699-3.282-2.626-8.073-2.094-10.698 1.188l-10.324 12.906h-13.949v-13.949l12.905-10.324c3.283-2.626 3.815-7.415 1.189-10.699-2.626-3.282-7.416-3.816-10.698-1.188l-3.396 2.717v-9.384c0-4.204-3.408-7.612-7.611-7.612-4.204 0-7.612 3.407-7.612 7.612v9.384l-3.396-2.717c-3.283-2.626-8.073-2.094-10.698 1.188-2.626 3.284-2.094 8.072 1.189 10.699l12.905 10.324v13.949h-13.949l-10.325-12.906c-2.626-3.283-7.416-3.815-10.698-1.188-3.283 2.626-3.815 7.415-1.189 10.699l2.716 3.396h-9.383c-4.204 0-7.611 3.407-7.611 7.611s3.408 7.612 7.611 7.612h9.383l-2.716 3.395c-2.626 3.283-2.094 8.072 1.189 10.699 1.403 1.123 3.082 1.668 4.75 1.668 2.233 0 4.445-.977 5.948-2.856l10.325-12.906h13.949v13.95l-12.905 10.325c-3.283 2.626-3.815 7.416-1.189 10.699 2.625 3.281 7.415 3.814 10.698 1.188l3.396-2.717v9.383c0 4.204 3.408 7.612 7.612 7.612s7.611-3.407 7.611-7.612v-9.382l3.395 2.716c1.403 1.123 3.082 1.668 4.75 1.668 2.233 0 4.445-.977 5.948-2.856 2.626-3.284 2.094-8.072-1.189-10.699l-12.905-10.324v-13.951h13.949l10.324 12.906c1.504 1.879 3.716 2.856 5.949 2.856 1.667 0 3.346-.545 4.75-1.668 3.283-2.626 3.815-7.415 1.189-10.699l-2.716-3.395h9.383c4.204 0 7.612-3.407 7.612-7.612-.001-4.204-3.408-7.611-7.612-7.611z"/></g><g fill="#a4ccff"><path d="m207.461 370.343 6.507-6.506 6.506 6.506c1.486 1.486 3.434 2.229 5.382 2.229s3.896-.743 5.382-2.229c2.973-2.973 2.973-7.792 0-10.765l-6.506-6.506 6.506-6.506c2.973-2.973 2.973-7.792 0-10.765-2.972-2.971-7.792-2.971-10.764 0l-6.506 6.506-6.507-6.506c-2.972-2.971-7.792-2.971-10.764 0-2.973 2.973-2.973 7.792 0 10.765l6.506 6.506-6.506 6.506c-2.973 2.973-2.973 7.792 0 10.765 1.486 1.486 3.434 2.229 5.382 2.229s3.896-.744 5.382-2.229z"/><path d="m155.58 453.492c-2.972-2.971-7.792-2.971-10.764 0l-6.507 6.507-6.507-6.507c-2.972-2.971-7.792-2.971-10.764 0-2.973 2.973-2.973 7.792 0 10.765l6.506 6.506-6.506 6.506c-2.973 2.973-2.973 7.792 0 10.765 1.486 1.486 3.434 2.229 5.382 2.229s3.896-.743 5.382-2.229l6.507-6.507 6.507 6.507c1.486 1.486 3.434 2.229 5.382 2.229s3.896-.743 5.382-2.229c2.973-2.973 2.973-7.792 0-10.765l-6.506-6.506 6.506-6.506c2.972-2.974 2.972-7.792 0-10.765z"/><path d="m390.961 453.492c-2.972-2.971-7.792-2.971-10.764 0l-6.506 6.506-6.507-6.506c-2.972-2.971-7.792-2.971-10.764 0-2.973 2.973-2.973 7.792 0 10.765l6.506 6.506-6.506 6.506c-2.973 2.973-2.973 7.792 0 10.765 1.486 1.486 3.434 2.229 5.382 2.229s3.896-.743 5.382-2.229l6.507-6.506 6.506 6.506c1.486 1.486 3.434 2.229 5.382 2.229s3.896-.743 5.382-2.229c2.973-2.973 2.973-7.792 0-10.765l-6.506-6.506 6.506-6.506c2.973-2.974 2.973-7.792 0-10.765z"/><path d="m491.839 453.492c-2.972-2.971-7.792-2.971-10.764 0l-6.506 6.506-6.507-6.506c-2.972-2.971-7.792-2.971-10.764 0-2.973 2.973-2.973 7.792 0 10.765l6.506 6.506-6.506 6.506c-2.973 2.973-2.973 7.792 0 10.765 1.486 1.486 3.434 2.229 5.382 2.229s3.896-.743 5.382-2.229l6.507-6.506 6.506 6.506c1.486 1.486 3.434 2.229 5.382 2.229s3.896-.743 5.382-2.229c2.973-2.973 2.973-7.792 0-10.765l-6.506-6.506 6.506-6.506c2.973-2.974 2.973-7.792 0-10.765z"/><path d="m315.303 335.801c-2.972-2.971-7.792-2.971-10.764 0l-6.507 6.506-6.506-6.506c-2.972-2.971-7.792-2.971-10.764 0-2.973 2.973-2.973 7.792 0 10.765l6.506 6.506-6.506 6.506c-2.973 2.973-2.973 7.792 0 10.765 1.486 1.486 3.434 2.229 5.382 2.229s3.896-.743 5.382-2.229l6.506-6.506 6.507 6.506c1.486 1.486 3.434 2.229 5.382 2.229s3.896-.743 5.382-2.229c2.973-2.973 2.973-7.792 0-10.765l-6.506-6.506 6.506-6.506c2.972-2.973 2.972-7.792 0-10.765z"/><path d="m54.702 453.492c-2.972-2.971-7.792-2.971-10.764 0l-6.507 6.506-6.506-6.506c-2.972-2.971-7.792-2.971-10.764 0-2.973 2.973-2.973 7.792 0 10.765l6.506 6.506-6.506 6.506c-2.973 2.973-2.973 7.792 0 10.765 1.486 1.486 3.434 2.229 5.382 2.229s3.896-.743 5.382-2.229l6.506-6.506 6.507 6.506c1.486 1.486 3.434 2.229 5.382 2.229s3.896-.743 5.382-2.229c2.973-2.973 2.973-7.792 0-10.765l-6.506-6.506 6.506-6.506c2.972-2.974 2.972-7.792 0-10.765z"/></g></g></g></svg>